<mxfile host="app.diagrams.net" agent="Mozilla/5.0 (Macintosh; Intel Mac OS X 10_15_7) AppleWebKit/537.36 (KHTML, like Gecko) Chrome/137.0.0.0 Safari/537.36 Edg/137.0.0.0" version="27.0.9">
  <diagram name="第 1 页" id="Mgc2GyGFy8uuptv4L4lk">
    <mxGraphModel dx="731" dy="1129" grid="1" gridSize="10" guides="1" tooltips="1" connect="1" arrows="1" fold="1" page="1" pageScale="1" pageWidth="827" pageHeight="1169" math="0" shadow="0">
      <root>
        <mxCell id="0" />
        <mxCell id="1" parent="0" />
        <mxCell id="m5tUB71LAyybW_MvK0TV-1" value="&lt;div&gt;Domain Event&lt;/div&gt;领域事件" style="rounded=0;whiteSpace=wrap;html=1;fillColor=#ffe6cc;strokeColor=#d79b00;" vertex="1" parent="1">
          <mxGeometry x="240" y="190" width="100" height="40" as="geometry" />
        </mxCell>
        <mxCell id="m5tUB71LAyybW_MvK0TV-3" value="&lt;h1 style=&quot;margin-top: 0px;&quot;&gt;Heading&lt;/h1&gt;&lt;p&gt;领域事件：不是数据查询，是系统产生了业务上的影响动作 （&lt;font&gt;&lt;span style=&quot;background-color: rgb(255, 255, 255); color: rgb(25, 27, 31); font-family: -apple-system, &amp;quot;system-ui&amp;quot;, &amp;quot;Helvetica Neue&amp;quot;, &amp;quot;PingFang SC&amp;quot;, &amp;quot;Microsoft YaHei&amp;quot;, &amp;quot;Source Han Sans SC&amp;quot;, &amp;quot;Noto Sans CJK SC&amp;quot;, &amp;quot;WenQuanYi Micro Hei&amp;quot;, sans-serif;&quot;&gt;并且是过去式，如：用户已注册（User Registered），激活邮件已发送（ActivationEmail Sended）等&lt;/span&gt;&lt;span style=&quot;background-color: transparent; color: light-dark(rgb(0, 0, 0), rgb(255, 255, 255));&quot;&gt;）&lt;/span&gt;&lt;/font&gt;&lt;/p&gt;" style="text;html=1;whiteSpace=wrap;overflow=hidden;rounded=0;" vertex="1" parent="1">
          <mxGeometry x="40" y="20" width="380" height="130" as="geometry" />
        </mxCell>
        <mxCell id="m5tUB71LAyybW_MvK0TV-4" value="Command&lt;div&gt;决策命令&lt;/div&gt;" style="rounded=0;whiteSpace=wrap;html=1;fillColor=#7BD6F0;strokeColor=#10739e;" vertex="1" parent="1">
          <mxGeometry x="80" y="190" width="100" height="40" as="geometry" />
        </mxCell>
      </root>
    </mxGraphModel>
  </diagram>
</mxfile>
